<svg width="88" height="32" viewBox="0 0 88 32" fill="none" xmlns="http://www.w3.org/2000/svg">
<path d="M48.611 23.7168H51.815C51.8584 24.4822 52.1362 25.1173 52.6484 25.6227C53.16 26.1272 53.9861 26.3789 55.1271 26.3789C56.2237 26.3789 56.9813 26.2062 57.3994 25.86C57.8185 25.5142 58.0282 25.0527 58.0282 24.4749C58.0282 23.4361 57.3859 22.8294 56.1012 22.6558L52.9184 22.2449C51.6492 22.0858 50.6678 21.66 49.9748 20.9679C49.2814 20.2749 48.9351 19.3359 48.9351 18.1515C48.9351 16.8528 49.4294 15.7845 50.4185 14.9473C51.4071 14.1101 52.9117 13.6915 54.9323 13.6915C56.3761 13.6915 57.545 13.9013 58.4391 14.3204C59.3341 14.7385 60.0016 15.2979 60.4414 15.9987C60.8821 16.6984 61.1319 17.4739 61.1898 18.3251H57.9646C57.8768 17.6475 57.5875 17.1098 57.0965 16.7124C56.6066 16.315 55.8852 16.1163 54.9323 16.1163C54.0512 16.1163 53.3833 16.2832 52.9281 16.616C52.4738 16.9478 52.2471 17.3948 52.2471 17.9567C52.2471 18.3762 52.3807 18.7302 52.6484 19.0196C52.9155 19.308 53.3452 19.4878 53.9369 19.5597L56.9461 19.9281C59.8752 20.2599 61.3403 21.6672 61.3403 24.1489C61.3403 25.0879 61.1305 25.9111 60.7114 26.6181C60.2933 27.3256 59.6259 27.871 58.7092 28.2539C57.7934 28.6359 56.5854 28.8269 55.0846 28.8269C53.9003 28.8269 52.9001 28.686 52.0851 28.4044C51.2696 28.1228 50.6133 27.7403 50.1156 27.2566C49.618 26.7734 49.2495 26.2246 49.0103 25.6111C48.7721 24.9977 48.639 24.3664 48.611 23.7168Z" fill="#8C52FF"/>
<path d="M74.7299 16.6572H66.7845V20.143H73.995V22.5891H66.7845V28.4572H63.4937V14.0588H74.7299V16.6572Z" fill="#8C52FF"/>
<path d="M75.8488 28.4588L79.8977 23.1751L75.8064 17.6329H79.5736L81.8691 21.0531L84.0777 17.6329H87.5402L83.6013 23.0034L87.7351 28.4588H83.9909L81.6743 25.081L79.4 28.4588H75.8488Z" fill="#8C52FF"/>
<path d="M10.2849 6.54237C10.9075 3.59719 7.90702 -0.227633 4.59981 0.0106048C2.74945 0.143709 1.03846 1.53214 0.366702 3.27649C0.252893 3.57212 -0.465646 5.43654 0.487262 7.02656C1.06354 7.98723 1.94363 8.33736 3.51139 8.96189C5.23974 9.65007 6.28814 10.0672 7.5029 9.68769C8.93178 9.2416 10.0028 7.87776 10.2849 6.54237Z" fill="#8C52FF"/>
<path d="M26.3692 9.12284C26.6069 6.26832 24.4398 3.59611 22.0146 2.47002C21.3655 2.16813 19.178 1.152 17.1762 2.10688C15.6919 2.81532 15.039 4.2597 14.1526 6.21961C13.5999 7.4407 13.326 8.06861 13.4268 8.88122C13.6839 10.9632 15.9904 12.1008 16.3299 12.2682C17.2703 12.7326 18.4089 12.7789 20.6841 12.8729C22.8464 12.9621 23.9426 12.9964 24.6756 12.5098C26.1696 11.5187 26.3403 9.47103 26.3692 9.12284Z" fill="#8C52FF"/>
<path d="M13.3729 12.3932C13.167 12.2022 12.7112 12.125 11.8008 11.9698C11.2631 11.8781 10.9308 11.8241 10.4703 11.8487C9.97694 11.8757 9.57041 11.8974 9.20005 12.1511C8.75976 12.4525 8.61075 12.9174 8.47427 13.3611C8.27463 14.0121 7.96165 15.0321 8.47427 16.0825C8.91359 16.9819 9.94655 17.8789 11.075 17.7762C12.8058 17.619 13.4168 15.2299 13.5547 14.6917C13.6714 14.233 13.9945 12.969 13.3729 12.3932Z" fill="#8C52FF"/>
<path d="M34.9598 13.2958C34.7838 12.8627 34.4737 12.5956 34.234 12.3887C34.0348 12.217 33.3255 11.6224 32.2983 11.6021C31.1877 11.5799 30.4262 12.244 30.1215 12.5092C28.9491 13.5302 28.7644 14.9548 28.7302 15.4732C28.7095 15.7877 28.5749 18.334 30.1817 19.0415C31.1756 19.4789 32.3306 18.9923 32.9638 18.497C33.4243 18.1368 33.6944 17.5518 34.234 16.3804C35.2626 14.148 35.0408 13.496 34.9598 13.2958Z" fill="#8C52FF"/>
<path d="M20.4477 21.4611C20.3913 21.0372 20.1294 19.0724 18.7541 18.4373C17.6256 17.9155 16.3699 18.5776 15.4883 19.042C14.6898 19.4626 13.6934 19.9878 13.311 21.0984C12.8365 22.4762 13.639 23.7899 13.9158 24.2432C14.9786 25.9852 17.236 27.2039 18.9962 26.6628C19.2112 26.5967 20.0986 26.3242 20.4477 25.5738C20.6748 25.0867 20.5249 24.7178 20.4477 23.6385C20.3479 22.2515 20.5519 22.2414 20.4477 21.4611Z" fill="#8C52FF"/>
<path d="M26.6001 24.5258C27.1865 25.0543 28.7528 24.8084 29.5031 23.8C30.1113 22.982 30.1667 21.6828 29.5031 21.0178C29.1092 20.6233 28.5883 20.5789 28.0516 20.5336C27.0495 20.4492 25.5705 20.6937 25.3906 21.3804C25.2869 21.7764 25.7195 21.9143 26.1159 22.9531C26.4838 23.9176 26.277 24.2345 26.6001 24.5258Z" fill="#8C52FF"/>
<path d="M32.0758 9.3044C32.9496 9.42015 34.0974 9.00058 34.3742 8.09489C34.7079 7.00401 33.5312 6.02164 33.4063 5.91747C33.1753 5.72456 32.6193 5.26015 31.8342 5.31271C31.0096 5.36721 30.2095 5.97197 30.0195 6.76432C29.7379 7.9396 30.8885 9.14767 32.0758 9.3044Z" fill="#8C52FF"/>
<path d="M12.4047 3.67564C12.965 3.46441 13.5514 2.83602 13.372 2.30457C13.196 1.78324 12.3482 1.54983 11.7594 1.82086C11.0935 2.12709 10.7737 3.07185 11.1142 3.51408C11.3871 3.86854 12.0223 3.81984 12.4047 3.67564Z" fill="#8C52FF"/>
<mask id="mask0_1_1355" style="mask-type:luminance" maskUnits="userSpaceOnUse" x="34" y="17" width="11" height="11">
<path d="M34.91 17.6485H44.4974V27.6487H34.91V17.6485Z" fill="white"/>
</mask>
<g mask="url(#mask0_1_1355)">
<path d="M44.4085 21.6805C44.3878 21.462 44.0999 18.8487 42.0702 17.9709C40.5877 17.3305 39.1188 18.0221 38.1992 18.4546C37.3157 18.8708 35.5599 19.6979 35.0545 21.6C34.418 23.9958 36.3368 25.949 36.5061 26.1159C36.8788 26.4843 38.3984 27.8665 40.3765 27.5675C43.0086 27.1696 44.0203 24.1622 44.1665 23.6968C44.2788 23.3385 44.4973 22.6185 44.4085 21.6805Z" fill="#8C52FF"/>
</g>
<path d="M39.1486 14.7274C39.858 14.5398 40.6156 13.9114 40.5191 13.4369C40.3807 12.7569 38.4407 12.1608 37.697 12.9532C37.3648 13.3067 37.236 13.9732 37.5355 14.4048C37.9623 15.0192 38.9899 14.7689 39.1486 14.7274Z" fill="#8C52FF"/>
<path d="M26.779 17.469C26.8639 17.238 27.5665 15.3191 26.779 14.7274C26.2852 14.3555 25.4123 14.6642 25.0048 14.8079C24.7955 14.8817 24.4136 15.0216 24.0375 15.3726C23.9613 15.443 23.616 15.7744 23.3922 16.3401C23.2895 16.599 23.0469 17.2115 23.2312 17.8722C23.467 18.7195 24.3755 19.5418 25.2469 19.4044C26.1203 19.2669 26.4983 18.2373 26.779 17.469Z" fill="#8C52FF"/>
<path d="M27.4842 5.30344C28.0576 5.3806 28.4227 4.63936 28.4521 4.57763C28.5201 4.4344 28.6821 4.09392 28.5326 3.77129C28.3484 3.37342 27.7702 3.17376 27.3232 3.36812C26.9461 3.53208 26.771 3.9285 26.7585 4.255C26.7421 4.70736 27.0309 5.24219 27.4842 5.30344Z" fill="#8C52FF"/>
<path d="M28.6275 26.9041C27.8458 27.017 27.3452 27.4718 27.176 27.6299C26.4859 28.2742 25.7278 29.6116 26.2891 30.7748C26.6142 31.449 27.4041 32.1082 28.1438 31.9843C28.7987 31.8748 29.118 31.1852 29.7565 29.8069C30.3318 28.565 30.6824 27.8079 30.3212 27.3073C29.8977 26.7204 28.7814 26.882 28.6275 26.9041Z" fill="#8C52FF"/>
</svg>
